Coordinates
version=1
nRows=21
nColumns=22
inDegrees=yes

Units are S.I. units (second, meters, Newtons, ...)
If the header above contains a line with 'inDegrees', this indicates whether rotational values are in degrees (yes) or radians (no).

endheader
time	pelvis_tilt	pelvis_list	pelvis_rotation	pelvis_tx	pelvis_ty	pelvis_tz	hip_flexion_r	hip_adduction_r	hip_rotation_r	knee_angle_r	ankle_angle_r	subtalar_angle_r	hip_flexion_l	hip_adduction_l	hip_rotation_l	knee_angle_l	ankle_angle_l	subtalar_angle_l	lumbar_extension	lumbar_bending	lumbar_rotation
      4.10000000	      2.55019483	     -1.81948255	    -85.79597596	      0.30684087	      1.05661956	      0.45175214	     -7.06440932	      2.56591042	     -1.14224872	    -25.41021129	     18.40975015	     -0.06344187	     18.11702382	      2.28026784	      5.53516893	    -13.43321384	     -1.06344662	     -0.92781177	     -3.33732740	     -2.71886044	      0.82425692
      4.11000000	      2.84995005	     -1.81472123	    -86.33399397	      0.30855722	      1.05748916	      0.45954011	     -6.83810902	      2.03284407	     -0.72166719	    -26.58699095	     17.72610320	      0.67130421	     17.85986116	      2.54388103	      5.26597008	    -13.81609573	     -1.18681174	     -0.82364033	     -3.18763195	     -3.18912141	      0.70138866
      4.12000000	      3.14151575	     -1.82635346	    -86.86224119	      0.31030414	      1.05851415	      0.46726771	     -6.53679893	      1.49759345	     -0.31142775	    -27.88929759	     16.90521632	      1.45322497	     17.57331818	      2.78842302	      4.91789285	    -14.17658895	     -1.08476233	     -0.55045196	     -3.06066895	     -3.63688854	      0.57153527
      4.13000000	      3.41608786	     -1.85498253	    -87.38497045	      0.31205973	      1.05965332	      0.47490076	     -6.15647060	      0.97014369	      0.08234478	    -29.31442344	     15.94121930	      2.24967586	     17.24283458	      3.01144308	      4.52411622	    -14.48623518	     -0.80414315	     -0.18742746	     -2.96185710	     -4.05685700	      0.44749090
      4.14000000	      3.67964934	     -1.89635745	    -87.90750617	      0.31381088	      1.06086632	      0.48240191	     -5.69702467	      0.45154218	      0.48942777	    -30.84551702	     14.83565975	      3.08754298	     16.86988178	      3.22525091	      4.09206598	    -14.73632407	     -0.41019870	      0.20399006	     -2.89300723	     -4.45585210	      0.33943283
      4.15000000	      3.92019288	     -1.94788908	    -88.43519729	      0.31554427	      1.06211487	      0.48975113	     -5.15755684	     -0.04153938	      0.91554278	    -32.46833445	     13.58305907	      3.95571936	     16.44000492	      3.42030038	      3.63459345	    -14.88683426	      0.04841198	      0.56174523	     -2.84980708	     -4.81908405	      0.25529363
      4.16000000	      4.13806895	     -2.00510095	    -88.94772248	      0.31723788	      1.06336597	      0.49694430	     -4.55898782	     -0.49193515	      1.37943815	    -34.13432499	     12.16672049	      4.89452198	     15.96812256	      3.60063564	      3.14446719	    -14.94986653	      0.52269039	      0.86817794	     -2.83009831	     -5.15215327	      0.14053379
      4.17000000	      4.32353599	     -2.07214354	    -89.46020256	      0.31886987	      1.06459077	      0.50395861	     -3.90387160	     -0.89275859	      1.86888305	    -35.83729907	     10.61625141	      5.86040106	     15.44134471	      3.75438181	      2.63213741	    -14.90593768	      0.97784718	      1.08525275	     -2.83761118	     -5.44542036	      0.04810875
      4.18000000	      4.47724117	     -2.14736970	    -89.95539422	      0.32045114	      1.06577004	      0.51080256	     -3.21312280	     -1.23723151	      2.38315679	    -37.54015692	      8.95108192	      6.87697394	     14.87007943	      3.88748921	      2.11480709	    -14.77192454	      1.40834324	      1.21589291	     -2.87065710	     -5.70060912	     -0.04757323
      4.19000000	      4.60700777	     -2.23012253	    -90.42821984	      0.32198597	      1.06689379	      0.51749917	     -2.50861025	     -1.52950936	      2.92947773	    -39.20649029	      7.21157157	      7.93971490	     14.26324538	      4.00984234	      1.59991024	    -14.56468450	      1.81873283	      1.26101979	     -2.92195924	     -5.92466331	     -0.15931136
      4.20000000	      4.71535288	     -2.32209280	    -90.87526824	      0.32346432	      1.06795466	      0.52406193	     -1.80700274	     -1.77134976	      3.50295417	    -40.81311561	      5.45324385	      9.03476173	     13.62981029	      4.12432614	      1.10492250	    -14.30819505	      2.21127409	      1.22927457	     -2.99095592	     -6.12457900	     -0.28935866
      4.21000000	      4.80150822	     -2.41984194	    -91.27717558	      0.32492443	      1.06896089	      0.53050877	     -1.12595989	     -1.96114472	      4.09013871	    -42.32871147	      3.73010631	     10.17577639	     12.98503767	      4.23480264	      0.65435558	    -14.02380771	      2.55602205	      1.13703913	     -3.07166017	     -6.29492955	     -0.45407774
      4.22000000	      4.87144850	     -2.52293383	    -91.63700377	      0.32635657	      1.06991078	      0.53684387	     -0.47305681	     -2.10783286	      4.68545120	    -43.73882438	      2.12405044	     11.32492946	     12.33764806	      4.34634932	      0.26352619	    -13.72913771	      2.87664616	      0.99001866	     -3.15909040	     -6.44423219	     -0.64995535
      4.23000000	      4.92674532	     -2.62962844	    -91.94176945	      0.32778551	      1.07080998	      0.54306036	      0.14490542	     -2.21757488	      5.26753291	    -45.02958596	      0.70858883	     12.46240447	     11.70194351	      4.46220440	     -0.04218769	    -13.44733772	      3.15712141	      0.79468129	     -3.25388053	     -6.57274273	     -0.88358900
      4.24000000	      4.97387362	     -2.73566844	    -92.21691582	      0.32918231	      1.07166561	      0.54919348	      0.72852481	     -2.30304285	      5.84690698	    -46.18870434	     -0.44265480	     13.43488853	     11.07552083	      4.58049648	     -0.30519795	    -13.16736865	      3.41377232	      0.56851983	     -3.33992003	     -6.68642641	     -1.12964578
      4.25000000	      5.01548576	     -2.84970974	    -92.42639487	      0.33062521	      1.07246876	      0.55514545	      1.27797599	     -2.37722810	      6.37455346	    -47.22971169	     -1.28406024	     14.28899373	     10.48203857	      4.71497706	     -0.44791428	    -12.94513548	      3.65599843	      0.29565703	     -3.45017460	     -6.78786203	     -1.39559890
      4.26000000	      5.05911267	     -2.95581018	    -92.61757010	      0.33204786	      1.07322756	      0.56102032	      1.80582039	     -2.45743473	      6.87200745	    -48.13648030	     -1.80832263	     14.80658697	      9.90454627	      4.85554831	     -0.58356152	    -12.72048865	      3.86323840	      0.03063808	     -3.54113251	     -6.88261081	     -1.66135615
      4.27000000	      5.11127437	     -3.06231788	    -92.76664624	      0.33350615	      1.07392506	      0.56670910	      2.32216608	     -2.55727772	      7.30966983	    -48.93497668	     -2.04839879	     15.03641884	      9.36551032	      5.01738111	     -0.65008079	    -12.54718839	      4.06626134	     -0.21677138	     -3.64650573	     -6.97846421	     -1.91695637
      4.28000000	      5.16396570	     -3.15687734	    -92.89246037	      0.33497835	      1.07456451	      0.57229695	      2.83204622	     -2.67589025	      7.69140527	    -49.61418317	     -2.01447180	     15.05197920	      8.84144093	      5.18528543	     -0.69345652	    -12.36219848	      4.27401326	     -0.48291670	     -3.73587590	     -7.06264458	     -2.16689613
      4.29000000	      5.22933391	     -3.24021436	    -93.00984447	      0.33646006	      1.07514883	      0.57777038	      3.34716881	     -2.83175750	      8.01914972	    -50.18844793	     -1.81949594	     14.78795046	      8.32890175	      5.36935286	     -0.75387097	    -12.15493043	      4.43452837	     -0.82616058	     -3.81199983	     -7.14660671	     -2.39089602
      4.30000000	      5.32783601	     -3.31740660	    -93.11779257	      0.33793466	      1.07564465	      0.58301410	      3.88429833	     -3.03835931	      8.31121450	    -50.69885534	     -1.49013689	     14.31065576	      7.86267600	      5.58909773	     -0.82283734	    -11.99199459	      4.59218301	     -1.10205033	     -3.90126004	     -7.26180531	     -2.58054037
